{
  "accessors": [
    {
      "bufferView": 2,
      "componentType": 5126,
      "count": 201,
      "max": [
        0.7312639355659485,
        1.0859999656677246,
        0.6159999966621399
      ],
      "min": [
        -0.5945000052452087,
        0.7674999833106995,
        -0.9965999722480774
      ],
      "type": "VEC3"
    },
    {
      "bufferView": 2,
      "byteOffset": 2412,
      "componentType": 5126,
      "count": 201,
      "max": [
        0.9434506297111511,
        0.9672120809555054,
        0.9496666193008423
      ],
      "min": [
        -0.9433813095092773,
        0.0,
        -0.4213201403617859
      ],
      "type": "VEC3"
    },
    {
      "bufferView": 1,
      "componentType": 5126,
      "count": 201,
      "max": [
        15.983799934387207,
        1.0
      ],
      "min": [
        0.0,
        -12.543800354003906
      ],
      "type": "VEC2"
    },
    {
      "bufferView": 0,
      "componentType": 5125,
      "count": 660,
      "type": "SCALAR"
    },
    {
      "bufferView": 2,
      "byteOffset": 4824,
      "componentType": 5126,
      "count": 2196,
      "max": [
        0.7491000294685364,
        1.1204999685287476,
        1.5299999713897705
      ],
      "min": [
        -0.7491000294685364,
        0.10909999907016754,
        -1.2914999723434448
      ],
      "type": "VEC3"
    },
    {
      "bufferView": 2,
      "byteOffset": 31176,
      "componentType": 5126,
      "count": 2196,
      "max": [
        1.0,
        1.0,
        1.0
      ],
      "min": [
        -1.0,
        -1.0,
        -0.9999924898147583
      ],
      "type": "VEC3"
    },
    {
      "bufferView": 1,
      "byteOffset": 1608,
      "componentType": 5126,
      "count": 2196,
      "max": [
        20.146400451660156,
        1.9569000005722046
      ],
      "min": [
        0.0031999999191612005,
        -12.793999671936035
      ],
      "type": "VEC2"
    },
    {
      "bufferView": 0,
      "byteOffset": 2640,
      "componentType": 5125,
      "count": 5298,
      "type": "SCALAR"
    },
    {
      "bufferView": 2,
      "byteOffset": 57528,
      "componentType": 5126,
      "count": 3980,
      "max": [
        0.7698950171470642,
        0.5811223983764648,
        0.9093619585037231
      ],
      "min": [
        -0.7698950171470642,
        0.06632234901189804,
        -0.9093619585037231
      ],
      "type": "VEC3"
    },
    {
      "bufferView": 2,
      "byteOffset": 105288,
      "componentType": 5126,
      "count": 3980,
      "max": [
        1.0,
        0.9999978542327881,
        1.0
      ],
      "min": [
        -1.0,
        -0.9999982118606567,
        -1.0
      ],
      "type": "VEC3"
    },
    {
      "bufferView": 1,
      "byteOffset": 19176,
      "componentType": 5126,
      "count": 3980,
      "max": [
        -0.0026000000070780516,
        0.9882000088691711
      ],
      "min": [
        -0.9988999962806702,
        0.0035000001080334187
      ],
      "type": "VEC2"
    },
    {
      "bufferView": 0,
      "byteOffset": 23832,
      "componentType": 5125,
      "count": 10032,
      "type": "SCALAR"
    },
    {
      "bufferView": 2,
      "byteOffset": 153048,
      "componentType": 5126,
      "count": 1024,
      "max": [
        0.7552949786186218,
        0.6504223942756653,
        0.9786620140075684
      ],
      "min": [
        -0.7552949786186218,
        -0.0029776457231491804,
        -0.9786620140075684
      ],
      "type": "VEC3"
    },
    {
      "bufferView": 2,
      "byteOffset": 165336,
      "componentType": 5126,
      "count": 1024,
      "max": [
        1.0,
        0.9589641094207764,
        0.9588796496391296
      ],
      "min": [
        -1.0,
        -0.9588147401809692,
        -0.9588350653648376
      ],
      "type": "VEC3"
    },
    {
      "bufferView": 1,
      "byteOffset": 51016,
      "componentType": 5126,
      "count": 1024,
      "max": [
        0.9912999868392944,
        -1.0
      ],
      "min": [
        0.00139999995008111,
        -2.0
      ],
      "type": "VEC2"
    },
    {
      "bufferView": 0,
      "byteOffset": 63960,
      "componentType": 5125,
      "count": 3840,
      "type": "SCALAR"
    },
    {
      "bufferView": 2,
      "byteOffset": 177624,
      "componentType": 5126,
      "count": 7801,
      "max": [
        0.7491000294685364,
        1.135200023651123,
        1.5299999713897705
      ],
      "min": [
        -0.7491000294685364,
        0.12399999797344208,
        -1.326799988746643
      ],
      "type": "VEC3"
    },
    {
      "bufferView": 2,
      "byteOffset": 271236,
      "componentType": 5126,
      "count": 7801,
      "max": [
        1.0,
        1.0,
        0.9999998807907104
      ],
      "min": [
        -1.0,
        -1.0,
        -1.0
      ],
      "type": "VEC3"
    },
    {
      "bufferView": 1,
      "byteOffset": 59208,
      "componentType": 5126,
      "count": 7801,
      "max": [
        0.9979000091552734,
        1.9357999563217163
      ],
      "min": [
        0.00139999995008111,
        0.0017999999690800905
      ],
      "type": "VEC2"
    },
    {
      "bufferView": 0,
      "byteOffset": 79320,
      "componentType": 5125,
      "count": 24195,
      "type": "SCALAR"
    },
    {
      "bufferView": 2,
      "byteOffset": 364848,
      "componentType": 5126,
      "count": 175,
      "max": [
        0.6636999845504761,
        0.7232000231742859,
        1.3639999628067017
      ],
      "min": [
        -0.6636999845504761,
        0.23420000076293945,
        -1.2657999992370605
      ],
      "type": "VEC3"
    },
    {
      "bufferView": 2,
      "byteOffset": 366948,
      "componentType": 5126,
      "count": 175,
      "max": [
        0.9995812773704529,
        0.9450768828392029,
        1.0
      ],
      "min": [
        -0.9995813965797424,
        -0.7942192554473877,
        -0.9985300898551941
      ],
      "type": "VEC3"
    },
    {
      "bufferView": 1,
      "byteOffset": 121616,
      "componentType": 5126,
      "count": 175,
      "max": [
        0.9894999861717224,
        0.9861999750137329
      ],
      "min": [
        0.22018878161907196,
        0.2759000062942505
      ],
      "type": "VEC2"
    },
    {
      "bufferView": 0,
      "byteOffset": 176100,
      "componentType": 5125,
      "count": 411,
      "type": "SCALAR"
    },
    {
      "bufferView": 2,
      "byteOffset": 369048,
      "componentType": 5126,
      "count": 75,
      "max": [
        0.5113000273704529,
        0.6115999817848206,
        1.368399977684021
      ],
      "min": [
        -0.5069833993911743,
        0.41190001368522644,
        1.2488000392913818
      ],
      "type": "VEC3"
    },
    {
      "bufferView": 2,
      "byteOffset": 369948,
      "componentType": 5126,
      "count": 75,
      "max": [
        0.8277403116226196,
        0.9463804960250854,
        0.9907101988792419
      ],
      "min": [
        -0.8277403712272644,
        -0.7889407277107239,
        0.32225021719932556
      ],
      "type": "VEC3"
    },
    {
      "bufferView": 1,
      "byteOffset": 123016,
      "componentType": 5126,
      "count": 75,
      "max": [
        0.34610000252723694,
        0.8888000249862671
      ],
      "min": [
        0.22098705172538757,
        0.8407999873161316
      ],
      "type": "VEC2"
    },
    {
      "bufferView": 0,
      "byteOffset": 177744,
      "componentType": 5125,
      "count": 189,
      "type": "SCALAR"
    },
    {
      "bufferView": 2,
      "byteOffset": 370848,
      "componentType": 5126,
      "count": 234,
      "max": [
        0.6248000264167786,
        0.6682000160217285,
        1.3633325099945068
      ],
      "min": [
        -0.6248000264167786,
        0.41190001368522644,
        -1.2559000253677368
      ],
      "type": "VEC3"
    },
    {
      "bufferView": 2,
      "byteOffset": 373656,
      "componentType": 5126,
      "count": 234,
      "max": [
        0.9981731176376343,
        0.9450768828392029,
        0.9887877702713013
      ],
      "min": [
        -0.998173177242279,
        -0.8122175931930542,
        -0.9980690479278564
      ],
      "type": "VEC3"
    },
    {
      "bufferView": 1,
      "byteOffset": 123616,
      "componentType": 5126,
      "count": 234,
      "max": [
        0.46860000491142273,
        0.8878000378608704
      ],
      "min": [
        0.17800000309944153,
        0.29679998755455017
      ],
      "type": "VEC2"
    },
    {
      "bufferView": 0,
      "byteOffset": 178500,
      "componentType": 5125,
      "count": 786,
      "type": "SCALAR"
    },
    {
      "bufferView": 2,
      "byteOffset": 376464,
      "componentType": 5126,
      "count": 505,
      "max": [
        0.6420999765396118,
        0.7045000195503235,
        1.292799949645996
      ],
      "min": [
        -0.6420999765396118,
        0.16349999606609344,
        -1.309499979019165
      ],
      "type": "VEC3"
    },
    {
      "bufferView": 2,
      "byteOffset": 382524,
      "componentType": 5126,
      "count": 505,
      "max": [
        0.9996219277381897,
        1.0,
        0.9980407953262329
      ],
      "min": [
        -0.9988769292831421,
        -1.0,
        -0.9978891015052795
      ],
      "type": "VEC3"
    },
    {
      "bufferView": 1,
      "byteOffset": 125488,
      "componentType": 5126,
      "count": 505,
      "max": [
        0.9944999814033508,
        0.9976000189781189
      ],
      "min": [
        0.3346000015735626,
        0.009600000455975533
      ],
      "type": "VEC2"
    },
    {
      "bufferView": 0,
      "byteOffset": 181644,
      "componentType": 5125,
      "count": 1803,
      "type": "SCALAR"
    },
    {
      "bufferView": 2,
      "byteOffset": 388584,
      "componentType": 5126,
      "count": 327,
      "max": [
        0.5806000232696533,
        1.117900013923645,
        -0.44690001010894775
      ],
      "min": [
        -0.5806000232696533,
        0.7810999751091003,
        -1.3265000581741333
      ],
      "type": "VEC3"
    },
    {
      "bufferView": 2,
      "byteOffset": 392508,
      "componentType": 5126,
      "count": 327,
      "max": [
        0.9981347918510437,
        0.9997262358665466,
        0.6100021600723267
      ],
      "min": [
        -0.9981343746185303,
        -0.9354102611541748,
        -0.9969566464424133
      ],
      "type": "VEC3"
    },
    {
      "bufferView": 1,
      "byteOffset": 129528,
      "componentType": 5126,
      "count": 327,
      "max": [
        0.9976999759674072,
        0.9980000257492065
      ],
      "min": [
        0.3100000023841858,
        0.15039999783039093
      ],
      "type": "VEC2"
    },
    {
      "bufferView": 0,
      "byteOffset": 188856,
      "componentType": 5125,
      "count": 1278,
      "type": "SCALAR"
    },
    {
      "bufferView": 2,
      "byteOffset": 396432,
      "componentType": 5126,
      "count": 48,
      "max": [
        0.19359999895095825,
        0.6430000066757202,
        -1.2096999883651733
      ],
      "min": [
        -0.19359999895095825,
        0.5864999890327454,
        -1.2373000383377075
      ],
      "type": "VEC3"
    },
    {
      "bufferView": 2,
      "byteOffset": 397008,
      "componentType": 5126,
      "count": 48,
      "max": [
        0.9960225224494934,
        0.9566760659217834,
        -0.025482553988695145
      ],
      "min": [
        -0.9960224628448486,
        -0.9496785998344421,
        -0.981636643409729
      ],
      "type": "VEC3"
    },
    {
      "bufferView": 1,
      "byteOffset": 132144,
      "componentType": 5126,
      "count": 48,
      "max": [
        0.9598000049591064,
        0.02280000038444996
      ],
      "min": [
        0.8378000259399414,
        0.009100000374019146
      ],
      "type": "VEC2"
    },
    {
      "bufferView": 0,
      "byteOffset": 193968,
      "componentType": 5125,
      "count": 180,
      "type": "SCALAR"
    }
  ],
  "asset": {
    "extras": {
      "author": "Nirvana Studio (https://sketchfab.com/nirvanastudio)",
      "license": "CC-BY-4.0 (http://creativecommons.org/licenses/by/4.0/)",
      "source": "https://sketchfab.com/3d-models/cartoon-sports-car-bd149c9a899d46bfa97326934dfa769c",
      "title": "Cartoon Sports Car"
    },
    "generator": "Sketchfab-12.68.0",
    "version": "2.0"
  },
  "bufferViews": [
    {
      "buffer": 0,
      "byteLength": 194688,
      "name": "floatBufferViews",
      "target": 34963
    },
    {
      "buffer": 0,
      "byteLength": 132528,
      "byteOffset": 194688,
      "byteStride": 8,
      "name": "floatBufferViews",
      "target": 34962
    },
    {
      "buffer": 0,
      "byteLength": 397584,
      "byteOffset": 327216,
      "byteStride": 12,
      "name": "floatBufferViews",
      "target": 34962
    }
  ],
  "buffers": [
    {
      "byteLength": 724800,
      "uri": "scene.bin"
    }
  ],
  "extensionsRequired": [
    "KHR_materials_pbrSpecularGlossiness"
  ],
  "extensionsUsed": [
    "KHR_materials_pbrSpecularGlossiness"
  ],
  "materials": [
    {
      "alphaMode": "BLEND",
      "doubleSided": true,
      "extensions": {
        "KHR_materials_pbrSpecularGlossiness": {
          "diffuseFactor": [
            0.8,
            0.8,
            0.8,
            0.1780350704388061
          ],
          "glossinessFactor": 0.19595917942265426,
          "specularFactor": [
            0.0,
            0.0,
            0.0
          ]
        }
      },
      "name": "glass"
    },
    {
      "doubleSided": true,
      "extensions": {
        "KHR_materials_pbrSpecularGlossiness": {
          "diffuseFactor": [
            0.0420272,
            0.0236807,
            0.0368633,
            1.0
          ],
          "glossinessFactor": 0.006380161494889678,
          "specularFactor": [
            0.0,
            0.0,
            0.0
          ]
        }
      },
      "name": "underbody"
    },
    {
      "doubleSided": true,
      "extensions": {
        "KHR_materials_pbrSpecularGlossiness": {
          "diffuseFactor": [
            0.173355,
            0.173355,
            0.173355,
            1.0
          ],
          "glossinessFactor": 0.049836232630413,
          "specularFactor": [
            0.0,
            0.0,
            0.0
          ]
        }
      },
      "name": "wheel_metal"
    },
    {
      "doubleSided": true,
      "extensions": {
        "KHR_materials_pbrSpecularGlossiness": {
          "diffuseFactor": [
            0.00901806,
            0.00901806,
            0.00901806,
            1.0
          ],
          "glossinessFactor": 0.0,
          "specularFactor": [
            0.0,
            0.0,
            0.0
          ]
        }
      },
      "name": "wheel_tire"
    },
    {
      "doubleSided": true,
      "extensions": {
        "KHR_materials_pbrSpecularGlossiness": {
          "diffuseFactor": [
            0.018786704997028756,
            0.24666616065163857,
            0.8442220990774587,
            1.0
          ],
          "glossinessFactor": 0.8252842999008485,
          "specularFactor": [
            0.0,
            0.0,
            0.0
          ]
        }
      },
      "name": "Body"
    },
    {
      "doubleSided": true,
      "extensions": {
        "KHR_materials_pbrSpecularGlossiness": {
          "diffuseFactor": [
            0.00901801,
            0.00901801,
            0.00901801,
            1.0
          ],
          "glossinessFactor": 0.002016488338177288,
          "specularFactor": [
            0.0,
            0.0,
            0.0
          ]
        }
      },
      "name": "Material.004"
    },
    {
      "doubleSided": true,
      "extensions": {
        "KHR_materials_pbrSpecularGlossiness": {
          "diffuseFactor": [
            0.8,
            0.8,
            0.8,
            1.0
          ],
          "glossinessFactor": 0.33555107649465854,
          "specularFactor": [
            0.6583687503420098,
            0.6583687503420098,
            0.6583687503420098
          ]
        }
      },
      "name": "light"
    },
    {
      "doubleSided": true,
      "extensions": {
        "KHR_materials_pbrSpecularGlossiness": {
          "diffuseFactor": [
            1.0,
            0.0,
            0.0,
            1.0
          ],
          "glossinessFactor": 0.0,
          "specularFactor": [
            0.3361195726854301,
            0.3361195726854301,
            0.3361195726854301
          ]
        }
      },
      "name": "Material.002"
    },
    {
      "doubleSided": true,
      "extensions": {
        "KHR_materials_pbrSpecularGlossiness": {
          "diffuseFactor": [
            0.420024,
            0.420024,
            0.420024,
            1.0
          ],
          "glossinessFactor": 0.11591886697478054,
          "specularFactor": [
            0.0,
            0.0,
            0.0
          ]
        }
      },
      "name": "Exeost"
    },
    {
      "doubleSided": true,
      "extensions": {
        "KHR_materials_pbrSpecularGlossiness": {
          "diffuseFactor": [
            0.0765796,
            0.0765796,
            0.0765796,
            1.0
          ],
          "glossinessFactor": 0.017123719128974292,
          "specularFactor": [
            0.0,
            0.0,
            0.0
          ]
        }
      },
      "name": "tampers"
    },
    {
      "doubleSided": true,
      "extensions": {
        "KHR_materials_pbrSpecularGlossiness": {
          "diffuseFactor": [
            0.119275,
            0.119275,
            0.119275,
            1.0
          ],
          "glossinessFactor": 0.026670700801628745,
          "specularFactor": [
            0.0,
            0.0,
            0.0
          ]
        }
      },
      "name": "number_plate"
    }
  ],
  "meshes": [
    {
      "name": "windows_glass_0",
      "primitives": [
        {
          "attributes": {
            "NORMAL": 1,
            "POSITION": 0,
            "TEXCOORD_0": 2
          },
          "indices": 3,
          "material": 0,
          "mode": 4
        }
      ]
    },
    {
      "name": "windows_underbody_0",
      "primitives": [
        {
          "attributes": {
            "NORMAL": 5,
            "POSITION": 4,
            "TEXCOORD_0": 6
          },
          "indices": 7,
          "material": 1,
          "mode": 4
        }
      ]
    },
    {
      "name": "windows_wheel metal_0",
      "primitives": [
        {
          "attributes": {
            "NORMAL": 9,
            "POSITION": 8,
            "TEXCOORD_0": 10
          },
          "indices": 11,
          "material": 2,
          "mode": 4
        }
      ]
    },
    {
      "name": "windows_wheel_tire_0",
      "primitives": [
        {
          "attributes": {
            "NORMAL": 13,
            "POSITION": 12,
            "TEXCOORD_0": 14
          },
          "indices": 15,
          "material": 3,
          "mode": 4
        }
      ]
    },
    {
      "name": "windows_Body_0",
      "primitives": [
        {
          "attributes": {
            "NORMAL": 17,
            "POSITION": 16,
            "TEXCOORD_0": 18
          },
          "indices": 19,
          "material": 4,
          "mode": 4
        }
      ]
    },
    {
      "name": "windows_Material.004_0",
      "primitives": [
        {
          "attributes": {
            "NORMAL": 21,
            "POSITION": 20,
            "TEXCOORD_0": 22
          },
          "indices": 23,
          "material": 5,
          "mode": 4
        }
      ]
    },
    {
      "name": "windows_light_0",
      "primitives": [
        {
          "attributes": {
            "NORMAL": 25,
            "POSITION": 24,
            "TEXCOORD_0": 26
          },
          "indices": 27,
          "material": 6,
          "mode": 4
        }
      ]
    },
    {
      "name": "windows_Material.002_0",
      "primitives": [
        {
          "attributes": {
            "NORMAL": 29,
            "POSITION": 28,
            "TEXCOORD_0": 30
          },
          "indices": 31,
          "material": 7,
          "mode": 4
        }
      ]
    },
    {
      "name": "windows_Exeost_0",
      "primitives": [
        {
          "attributes": {
            "NORMAL": 33,
            "POSITION": 32,
            "TEXCOORD_0": 34
          },
          "indices": 35,
          "material": 8,
          "mode": 4
        }
      ]
    },
    {
      "name": "windows_tampers_0",
      "primitives": [
        {
          "attributes": {
            "NORMAL": 37,
            "POSITION": 36,
            "TEXCOORD_0": 38
          },
          "indices": 39,
          "material": 9,
          "mode": 4
        }
      ]
    },
    {
      "name": "windows_number_plate_0",
      "primitives": [
        {
          "attributes": {
            "NORMAL": 41,
            "POSITION": 40,
            "TEXCOORD_0": 42
          },
          "indices": 43,
          "material": 10,
          "mode": 4
        }
      ]
    }
  ],
  "nodes": [
    {
      "children": [
        1
      ],
      "matrix": [
        1.0,
        0.0,
        0.0,
        0.0,
        0.0,
        2.220446049250313e-16,
        -1.0,
        0.0,
        0.0,
        1.0,
        2.220446049250313e-16,
        0.0,
        0.0,
        0.0,
        0.0,
        1.0
      ],
      "name": "Sketchfab_model"
    },
    {
      "children": [
        2
      ],
      "matrix": [
        0.009999999776482582,
        0.0,
        0.0,
        0.0,
        0.0,
        0.0,
        0.009999999776482582,
        0.0,
        0.0,
        -0.009999999776482582,
        0.0,
        0.0,
        0.0,
        0.0,
        0.0,
        1.0
      ],
      "name": "305fa940269d443dad570ce7aa70e478.fbx"
    },
    {
      "children": [
        3
      ],
      "name": "RootNode"
    },
    {
      "children": [
        4,
        5,
        6,
        7,
        8,
        9,
        10,
        11,
        12,
        13,
        14
      ],
      "matrix": [
        100.0,
        0.0,
        0.0,
        0.0,
        0.0,
        99.99999999999866,
        1.6292067073209114e-05,
        0.0,
        0.0,
        -1.6292067073209114e-05,
        99.99999999999866,
        0.0,
        0.0,
        0.0,
        0.0,
        1.0
      ],
      "name": "windows"
    },
    {
      "mesh": 0,
      "name": "windows_glass_0"
    },
    {
      "mesh": 1,
      "name": "windows_underbody_0"
    },
    {
      "mesh": 2,
      "name": "windows_wheel metal_0"
    },
    {
      "mesh": 3,
      "name": "windows_wheel_tire_0"
    },
    {
      "mesh": 4,
      "name": "windows_Body_0"
    },
    {
      "mesh": 5,
      "name": "windows_Material.004_0"
    },
    {
      "mesh": 6,
      "name": "windows_light_0"
    },
    {
      "mesh": 7,
      "name": "windows_Material.002_0"
    },
    {
      "mesh": 8,
      "name": "windows_Exeost_0"
    },
    {
      "mesh": 9,
      "name": "windows_tampers_0"
    },
    {
      "mesh": 10,
      "name": "windows_number_plate_0"
    }
  ],
  "scene": 0,
  "scenes": [
    {
      "name": "Sketchfab_Scene",
      "nodes": [
        0
      ]
    }
  ]
}
